<svg xmlns="http://www.w3.org/2000/svg" xmlns:xlink="http://www.w3.org/1999/xlink" version="1.1" x="0px" y="0px" viewBox="0 0 32 40" enable-background="new 0 0 32 32" xml:space="preserve"><g display="none"><rect x="-56.545" y="-7.333" display="inline" fill="#000000" width="421.212" height="207"/></g><g display="none"><g display="inline"><line fill="none" stroke="#000000" stroke-miterlimit="10" x1="0" y1="5.583" x2="32" y2="5.583"/><line fill="none" stroke="#000000" stroke-miterlimit="10" x1="0" y1="10.756" x2="32" y2="10.756"/><line fill="none" stroke="#000000" stroke-miterlimit="10" x1="0" y1="15.929" x2="32" y2="15.929"/><line fill="none" stroke="#000000" stroke-miterlimit="10" x1="0" y1="21.101" x2="32" y2="21.101"/><line fill="none" stroke="#000000" stroke-miterlimit="10" x1="0" y1="26.274" x2="32" y2="26.274"/></g><path display="inline" fill="#000000" stroke="#000000" stroke-miterlimit="10" d="M28.872,2.4v20.64h-0.034   c0.017,0.146,0.034,0.309,0.034,0.464c0,2.304-2.342,4.17-5.233,4.17s-5.232-1.865-5.232-4.17c0-2.304,2.342-4.17,5.232-4.17   c1.227,0,2.35,0.344,3.242,0.903v-9.611l-13.287,2.097v12.697c0,2.304-2.342,4.17-5.232,4.17s-5.233-1.865-5.233-4.17   c0-2.304,2.342-4.17,5.233-4.17c1.304,0,2.487,0.378,3.406,1.006V5.864L28.872,2.4"/></g><g><g><path d="M29.122,2.094L13.126,5.333H0v0.5h11.518v4.672H0v0.5h11.518v4.673H0v0.5h11.518v4.673H0v0.5h6.222    c-1.964,0.673-3.344,2.243-3.344,4.069c0,0.205,0.023,0.405,0.057,0.603H0v0.5h3.058c0.61,1.905,2.753,3.317,5.304,3.317    s4.693-1.413,5.303-3.317h5.982c1.001,0.86,2.418,1.4,3.993,1.4s2.992-0.541,3.993-1.4H32v-0.5h-3.862    c0.619-0.715,0.984-1.583,0.984-2.52c0-0.07-0.003-0.143-0.009-0.214l0.001-1.938H32v-0.5h-2.886l0.002-4.673H32v-0.5h-2.884    l0.002-4.673H32v-0.5h-2.881l0.002-4.672H32v-0.5h-2.879L29.122,2.094z M11.518,21.352v0.455c-0.33-0.187-0.689-0.331-1.058-0.455    H11.518z M26.077,11.006h0.554v4.673H13.844v-2.741L26.077,11.006z M13.844,16.179h12.787v3.627    c-0.896-0.473-1.922-0.721-2.992-0.721c-1.788,0-3.373,0.696-4.375,1.767h-5.42V16.179z M13.844,25.421v-4.069h5.011    c-0.443,0.638-0.699,1.371-0.699,2.152c0,0.936,0.365,1.804,0.984,2.52h-5.353C13.82,25.826,13.844,25.626,13.844,25.421z     M28.622,22.79v0.714c0,2.161-2.235,3.92-4.983,3.92c-2.747,0-4.982-1.759-4.982-3.92s2.235-3.919,4.982-3.919    c1.132,0,2.207,0.299,3.109,0.864l0.383,0.239V10.333L13.344,12.51v12.911c0,2.161-2.235,3.92-4.982,3.92    c-2.748,0-4.983-1.759-4.983-3.92s2.235-3.92,4.983-3.92c1.197,0,2.357,0.342,3.266,0.962l0.391,0.268V6.068l16.604-3.363V22.79z"/></g></g><g display="none"><line display="inline" fill="none" stroke="#000000" stroke-width="2" stroke-miterlimit="10" x1="0" y1="5.583" x2="32" y2="5.583"/><line display="inline" fill="none" stroke="#000000" stroke-width="2" stroke-miterlimit="10" x1="0" y1="10.756" x2="32" y2="10.756"/><line display="inline" fill="none" stroke="#000000" stroke-width="2" stroke-miterlimit="10" x1="0" y1="15.929" x2="32" y2="15.929"/><line display="inline" fill="none" stroke="#000000" stroke-width="2" stroke-miterlimit="10" x1="0" y1="21.101" x2="32" y2="21.101"/><line display="inline" fill="none" stroke="#000000" stroke-width="2" stroke-miterlimit="10" x1="0" y1="26.274" x2="32" y2="26.274"/><path display="inline" fill="#000000" stroke="#0F8EDB" stroke-width="2" stroke-miterlimit="10" d="M28.872,2.4v20.64h-0.034   c0.017,0.146,0.034,0.309,0.034,0.464c0,2.304-2.342,4.17-5.233,4.17s-5.232-1.865-5.232-4.17c0-2.304,2.342-4.17,5.232-4.17   c1.227,0,2.35,0.344,3.242,0.903v-9.611l-13.287,2.097v12.697c0,2.304-2.342,4.17-5.232,4.17s-5.233-1.865-5.233-4.17   c0-2.304,2.342-4.17,5.233-4.17c1.304,0,2.487,0.378,3.406,1.006V5.864L28.872,2.4"/></g><g display="none"><rect y="5.481" display="inline" fill="#000000" width="32" height="20.694"/><line display="inline" fill="none" stroke="#000000" stroke-miterlimit="10" x1="0" y1="5.583" x2="32" y2="5.583"/><line display="inline" fill="none" stroke="#000000" stroke-miterlimit="10" x1="0" y1="10.756" x2="32" y2="10.756"/><line display="inline" fill="none" stroke="#000000" stroke-miterlimit="10" x1="0" y1="15.929" x2="32" y2="15.929"/><line display="inline" fill="none" stroke="#000000" stroke-miterlimit="10" x1="0" y1="21.101" x2="32" y2="21.101"/><line display="inline" fill="none" stroke="#000000" stroke-miterlimit="10" x1="0" y1="26.274" x2="32" y2="26.274"/><path display="inline" fill="#000000" stroke="#000000" stroke-miterlimit="10" d="M28.872,2.4v20.64h-0.034   c0.017,0.146,0.034,0.309,0.034,0.464c0,2.304-2.342,4.17-5.233,4.17s-5.232-1.865-5.232-4.17c0-2.304,2.342-4.17,5.232-4.17   c1.227,0,2.35,0.344,3.242,0.903v-9.611l-13.287,2.097v12.697c0,2.304-2.342,4.17-5.232,4.17s-5.233-1.865-5.233-4.17   c0-2.304,2.342-4.17,5.233-4.17c1.304,0,2.487,0.378,3.406,1.006V5.864L28.872,2.4"/></g><g display="none"><rect y="5.083" display="inline" width="32" height="1"/><rect y="10.256" display="inline" width="32" height="1"/><rect y="15.429" display="inline" width="32" height="1"/><rect y="20.602" display="inline" width="32" height="1"/><rect y="25.773" display="inline" width="32" height="1"/><path display="inline" d="M8.361,30.091c-3.161,0-5.733-2.095-5.733-4.67s2.572-4.67,5.733-4.67c1.025,0,2.029,0.225,2.905,0.644   V5.455l18.105-3.667V23.54c-0.024,2.559-2.587,4.634-5.733,4.634c-3.161,0-5.732-2.095-5.732-4.67c0-2.574,2.571-4.669,5.732-4.669   c0.968,0,1.901,0.195,2.742,0.571v-8.195l-12.287,1.94v12.27C14.094,27.996,11.522,30.091,8.361,30.091z"/></g><g display="none"><path display="inline" d="M29.372,1.789L13.102,5.083H0v1h11.267v4.172H0v1h11.267v4.173H0v1h11.267v4.173H0v1h5.073   c-1.476,0.846-2.445,2.241-2.445,3.819c0,0.119,0.011,0.236,0.022,0.353H0v1h2.875c0.714,1.917,2.902,3.317,5.486,3.317   s4.772-1.4,5.485-3.317h5.706c1.041,0.863,2.487,1.4,4.086,1.4c1.599,0,3.045-0.537,4.086-1.4H32v-1h-3.354   c0.454-0.663,0.718-1.423,0.726-2.233v-1.938H32v-1h-2.628v-4.173H32v-1h-2.628v-4.173H32v-1h-2.628V6.083H32v-1h-2.628V1.789z    M18.633,25.773h-4.561c0.011-0.117,0.022-0.234,0.022-0.353v-3.819h4.315c-0.32,0.582-0.503,1.225-0.503,1.902   C17.906,24.328,18.172,25.101,18.633,25.773z M26.381,19.406c-0.841-0.376-1.774-0.571-2.742-0.571   c-1.814,0-3.431,0.692-4.482,1.767h-5.063v-4.173h12.287V19.406z M26.381,15.429H14.094v-2.278l12.003-1.895h0.285V15.429z"/></g><text x="0" y="47" fill="#000000" font-size="5px" font-weight="bold" font-family="'Helvetica Neue', Helvetica, Arial-Unicode, Arial, Sans-serif">Created by Alfredo @ IconsAlfredo.com</text><text x="0" y="52" fill="#000000" font-size="5px" font-weight="bold" font-family="'Helvetica Neue', Helvetica, Arial-Unicode, Arial, Sans-serif">from the Noun Project</text></svg>