<?xml version="1.0" encoding="utf-8"?>
<!-- Generator: Adobe Illustrator 22.1.0, SVG Export Plug-In . SVG Version: 6.00 Build 0)  -->
<svg version="1.1" id="图层_1" xmlns="http://www.w3.org/2000/svg" xmlns:xlink="http://www.w3.org/1999/xlink" x="0px" y="0px"
	 viewBox="0 0 32 27.8" style="enable-background:new 0 0 32 27.8;" xml:space="preserve">
<style type="text/css">
	.st0{display:none;}
	.st1{display:inline;}
	.st2{fill:none;stroke:#000000;stroke-miterlimit:10;}
	.st3{display:inline;stroke:#000000;stroke-miterlimit:10;}
	.st4{stroke:#000000;stroke-width:0.25;stroke-miterlimit:10;}
	.st5{display:inline;fill:none;stroke:#000000;stroke-width:2;stroke-miterlimit:10;}
	.st6{display:inline;stroke:#0F8EDB;stroke-width:2;stroke-miterlimit:10;}
	.st7{display:inline;fill:none;stroke:#000000;stroke-miterlimit:10;}
</style>
<g class="st0">
	<rect x="-56.5" y="-9.4" class="st1" width="421.2" height="207"/>
</g>
<g class="st0">
	<g class="st1">
		<line class="st2" x1="0" y1="3.5" x2="32" y2="3.5"/>
		<line class="st2" x1="0" y1="8.7" x2="32" y2="8.7"/>
		<line class="st2" x1="0" y1="13.8" x2="32" y2="13.8"/>
		<line class="st2" x1="0" y1="19" x2="32" y2="19"/>
		<line class="st2" x1="0" y1="24.2" x2="32" y2="24.2"/>
	</g>
	<path class="st3" d="M28.9,0.3v20.6l0,0c0,0.1,0,0.3,0,0.5c0,2.3-2.3,4.2-5.2,4.2s-5.2-1.9-5.2-4.2s2.3-4.2,5.2-4.2
		c1.2,0,2.4,0.3,3.2,0.9V8.5l-13.3,2.1v12.7c0,2.3-2.3,4.2-5.2,4.2s-5.2-1.9-5.2-4.2s2.3-4.2,5.2-4.2c1.3,0,2.5,0.4,3.4,1V3.8
		L28.9,0.3"/>
</g>
<g>
	<g>
		<path class="st4" d="M29.1,0l-16,3.2H0v0.5h11.5v4.7H0v0.5h11.5v4.7H0v0.5h11.5v4.7H0v0.5h6.2c-2,0.7-3.3,2.2-3.3,4.1
			c0,0.2,0,0.4,0.1,0.6H0v0.5h3.1c0.6,1.9,2.8,3.3,5.3,3.3s4.7-1.4,5.3-3.3h6c1,0.9,2.4,1.4,4,1.4s3-0.5,4-1.4H32v-0.6h-3.9
			c0.6-0.7,1-1.6,1-2.5c0-0.1,0-0.1,0-0.2v-1.9H32v-0.5h-2.9v-4.7H32v-0.5h-2.9V8.9H32V8.4h-2.9V3.7H32V3.2h-2.9V0z M11.5,19.3v0.5
			c-0.3-0.2-0.7-0.3-1.1-0.5H11.5z M26.1,8.9h0.6v4.7H13.8v-2.7L26.1,8.9z M13.8,14.1h12.8v3.6c-0.9-0.5-1.9-0.7-3-0.7
			c-1.8,0-3.4,0.7-4.4,1.8h-5.4C13.8,18.8,13.8,14.1,13.8,14.1z M13.8,23.3v-4.1h5c-0.4,0.6-0.7,1.4-0.7,2.2c0,0.9,0.4,1.8,1,2.5
			h-5.4C13.8,23.7,13.8,23.5,13.8,23.3z M28.6,20.7v0.7c0,2.2-2.2,3.9-5,3.9c-2.7,0-5-1.8-5-3.9s2.2-3.9,5-3.9
			c1.1,0,2.2,0.3,3.1,0.9l0.4,0.2V8.2l-13.8,2.2v12.9c0,2.2-2.2,3.9-5,3.9c-2.7,0-5-1.8-5-3.9s2.2-3.9,5-3.9c1.2,0,2.4,0.3,3.3,1
			l0.4,0.3V4l16.6-3.4V20.7L28.6,20.7z"/>
	</g>
</g>
<g class="st0">
	<line class="st5" x1="0" y1="3.5" x2="32" y2="3.5"/>
	<line class="st5" x1="0" y1="8.7" x2="32" y2="8.7"/>
	<line class="st5" x1="0" y1="13.8" x2="32" y2="13.8"/>
	<line class="st5" x1="0" y1="19" x2="32" y2="19"/>
	<line class="st5" x1="0" y1="24.2" x2="32" y2="24.2"/>
	<path class="st6" d="M28.9,0.3v20.6l0,0c0,0.1,0,0.3,0,0.5c0,2.3-2.3,4.2-5.2,4.2s-5.2-1.9-5.2-4.2s2.3-4.2,5.2-4.2
		c1.2,0,2.4,0.3,3.2,0.9V8.5l-13.3,2.1v12.7c0,2.3-2.3,4.2-5.2,4.2s-5.2-1.9-5.2-4.2s2.3-4.2,5.2-4.2c1.3,0,2.5,0.4,3.4,1V3.8
		L28.9,0.3"/>
</g>
<g class="st0">
	<rect y="3.4" class="st1" width="32" height="20.7"/>
	<line class="st7" x1="0" y1="3.5" x2="32" y2="3.5"/>
	<line class="st7" x1="0" y1="8.7" x2="32" y2="8.7"/>
	<line class="st7" x1="0" y1="13.8" x2="32" y2="13.8"/>
	<line class="st7" x1="0" y1="19" x2="32" y2="19"/>
	<line class="st7" x1="0" y1="24.2" x2="32" y2="24.2"/>
	<path class="st3" d="M28.9,0.3v20.6l0,0c0,0.1,0,0.3,0,0.5c0,2.3-2.3,4.2-5.2,4.2s-5.2-1.9-5.2-4.2s2.3-4.2,5.2-4.2
		c1.2,0,2.4,0.3,3.2,0.9V8.5l-13.3,2.1v12.7c0,2.3-2.3,4.2-5.2,4.2s-5.2-1.9-5.2-4.2s2.3-4.2,5.2-4.2c1.3,0,2.5,0.4,3.4,1V3.8
		L28.9,0.3"/>
</g>
<g class="st0">
	<rect y="3" class="st1" width="32" height="1"/>
	<rect y="8.2" class="st1" width="32" height="1"/>
	<rect y="13.3" class="st1" width="32" height="1"/>
	<rect y="18.5" class="st1" width="32" height="1"/>
	<rect y="23.7" class="st1" width="32" height="1"/>
	<path class="st1" d="M8.4,28c-3.2,0-5.7-2.1-5.7-4.7s2.6-4.7,5.7-4.7c1,0,2,0.2,2.9,0.6V3.4l18.1-3.7v21.8c0,2.6-2.6,4.6-5.7,4.6
		c-3.2,0-5.7-2.1-5.7-4.7s2.6-4.7,5.7-4.7c1,0,1.9,0.2,2.7,0.6V9.1L14.1,11v12.3C14.1,25.9,11.5,28,8.4,28z"/>
</g>
<g class="st0">
	<path class="st1" d="M29.4-0.3L13.1,3H0v1h11.3v4.2H0v1h11.3v4.2H0v1h11.3v4.2H0v1h5.1c-1.5,0.8-2.4,2.2-2.4,3.8c0,0.1,0,0.2,0,0.4
		H0v1h2.9c0.7,1.9,2.9,3.3,5.5,3.3s4.8-1.4,5.5-3.3h5.7c1,0.9,2.5,1.4,4.1,1.4s3-0.5,4.1-1.4H32v-1h-3.4c0.5-0.7,0.7-1.4,0.7-2.2
		v-1.9H32v-1h-2.6v-4.2H32v-1h-2.6V9.3H32v-1h-2.6V4H32V3h-2.6V-0.3z M18.6,23.7H14c0-0.1,0-0.2,0-0.4v-3.8h4.3
		c-0.3,0.6-0.5,1.2-0.5,1.9C17.9,22.2,18.2,23,18.6,23.7z M26.4,17.3c-0.8-0.4-1.8-0.6-2.7-0.6c-1.8,0-3.4,0.7-4.5,1.8h-5.1v-4.2
		h12.3C26.4,14.3,26.4,17.3,26.4,17.3z M26.4,13.3H14.1V11l12-1.9h0.3V13.3L26.4,13.3z"/>
</g>
</svg>
