<?xml version="1.0" encoding="utf-8"?>
<!-- Generator: Adobe Illustrator 22.1.0, SVG Export Plug-In . SVG Version: 6.00 Build 0)  -->
<svg version="1.1" id="图层_1" xmlns="http://www.w3.org/2000/svg" xmlns:xlink="http://www.w3.org/1999/xlink" x="0px" y="0px"
	 viewBox="0 0 56 60.7" style="enable-background:new 0 0 56 60.7;" xml:space="preserve">
<g>
	<path d="M55.1,34.7l-2.8-2.9c-1.1-1.1-3.1-1.1-4.2,0L32.7,47.3L30.5,55L30,55.6c-0.4,0.4-0.4,1,0,1.4l0,0l0,0
		c0.2,0.2,0.5,0.3,0.7,0.3c0.3,0,0.5-0.1,0.7-0.3l0.5-0.5l7.8-2.1L55.1,39C56.3,37.8,56.3,35.9,55.1,34.7z M35,47.8l10.2-10.2
		l4.2,4.2L39.2,52L35,47.8z M34.1,49.7l3.2,3.2l-4.4,1.2L34.1,49.7z M53.7,37.5l-2.8,2.8l-4.2-4.2l2.8-2.8c0.4-0.4,1-0.4,1.4,0
		l2.8,2.8C54.1,36.5,54.1,37.1,53.7,37.5z"/>
	<path d="M27.5,10c3.4,0,5.9,0.8,7.3,2.5c1.7,1.9,1.4,4.4,1.4,4.4v5.7l0.3,0.3c0.4,0.3,0.6,0.8,0.6,1.2v3.5c0,0.7-0.5,1.4-1.2,1.6
		c-0.5,0.2-0.8,0.7-0.7,1.2s0.7,0.8,1.2,0.7c1.5-0.5,2.6-1.9,2.6-3.5v-3.5c0-0.9-0.3-1.7-0.9-2.4V17c0-0.5,0.2-3.4-1.9-5.9
		c-1.7-2-4.7-3.1-8.7-3.1s-7,1.1-8.9,3.2c-2.1,2.4-1.9,5.3-1.9,5.9v4.7c-0.6,0.7-0.9,1.5-0.9,2.4v3.5c0,1.1,0.5,2.1,1.3,2.8
		c0.8,3.2,2.5,5.6,3.1,6.4v2.9c0,0.8-0.5,1.6-1.2,2L11.2,46c-0.3,0.1-0.5,0.3-0.8,0.5C5.2,41.8,2,35,2,27.5C2,13.4,13.4,2,27.5,2
		S53,13.4,53,27.5c0,0.5,0.5,1,1,1s1-0.5,1-1C55,12.3,42.7,0,27.5,0S0,12.3,0,27.5c0,8,3.4,15.2,8.9,20.3l0,0L9.2,48
		c2.3,2.1,5,3.8,8,4.9c0.2,0.1,0.3,0.1,0.5,0.2c0.4,0.1,0.7,0.2,1.1,0.4c0.4,0.1,0.8,0.2,1.2,0.4c0.3,0.1,0.5,0.2,0.8,0.2
		c0.7,0.2,1.4,0.3,2.1,0.5c0.1,0,0.1,0,0.2,0c0.5,0,0.9-0.3,1-0.8s-0.3-1.1-0.8-1.2l0,0c-0.7-0.1-1.3-0.3-1.9-0.4
		c-0.2-0.1-0.4-0.1-0.7-0.2c-0.4-0.1-0.9-0.3-1.3-0.4c-0.5-0.2-1-0.3-1.5-0.5c-0.2-0.1-0.4-0.2-0.6-0.2c-0.4-0.2-0.8-0.4-1.2-0.6
		c0,0-0.1,0-0.1-0.1c-1.3-0.7-2.6-1.5-3.8-2.4c0,0,0.1,0,0.1-0.1l7.9-4.3c1.4-0.7,2.2-2.2,2.2-3.7v-3.6l-0.2-0.3c0,0-2.2-2.6-3-6.2
		L19,29.2L18.6,29c-0.5-0.3-0.8-0.8-0.8-1.4v-3.5c0-0.5,0.2-0.9,0.6-1.2l0.3-0.3V17v-0.1c0,0-0.3-2.4,1.4-4.4
		C21.6,10.8,24.1,10,27.5,10z"/>
</g>
</svg>
