<?xml version="1.0" encoding="utf-8"?>
<!-- Generator: Adobe Illustrator 22.1.0, SVG Export Plug-In . SVG Version: 6.00 Build 0)  -->
<svg version="1.1" id="图层_1" xmlns="http://www.w3.org/2000/svg" xmlns:xlink="http://www.w3.org/1999/xlink" x="0px" y="0px"
	 viewBox="0 0 140 175" style="enable-background:new 0 0 140 175;" xml:space="preserve">
<g>
	<g>
		<g>
			<path d="M17.2,145.5c-0.4,0-0.8-0.3-1-0.7c-0.5-1.8-1.4-3.4-2.7-4.7c-1.3-1.3-2.9-2.3-4.7-2.7c-0.5-0.1-0.9-0.7-0.7-1.2
				c0.1-0.5,0.7-0.9,1.2-0.7c2.1,0.6,4.1,1.7,5.6,3.2c1.6,1.6,2.7,3.5,3.2,5.6c0.1,0.5-0.2,1.1-0.7,1.2
				C17.3,145.4,17.2,145.5,17.2,145.5z"/>
		</g>
		<g>
			<g>
				<path d="M29.5,125c-0.3,0-0.5-0.1-0.7-0.3c-0.4-0.4-0.4-1,0-1.4L105,47c0.4-0.4,1-0.4,1.4,0s0.4,1,0,1.4l-76.2,76.2
					C30,124.9,29.8,125,29.5,125z"/>
			</g>
		</g>
		<g>
			<path d="M6,148.5c-0.3,0-0.5-0.1-0.7-0.3c-0.3-0.3-0.4-0.6-0.3-1l10-37c0.1-0.3,0.4-0.6,0.7-0.7c0.3-0.1,0.7,0,1,0.3l27.1,27.1
				c0.3,0.3,0.4,0.6,0.3,1c-0.1,0.3-0.4,0.6-0.7,0.7l-37,10C6.2,148.4,6.1,148.5,6,148.5z M16.5,112.3L7.4,146l33.7-9.1L16.5,112.3z
				"/>
		</g>
		<g>
			<g>
				<path d="M121.4,63.3c-0.6,0-1.2-0.1-1.8-0.4c-1-0.4-1.8-1.2-2.2-2.2L92.5,36c-0.4-0.2-0.7-0.5-1-0.8c-1.3-1.3-1.7-3.3-0.9-5
					c0.5-1.1,1.4-1.9,2.5-2.2c1.1-0.4,2.3-0.3,3.4,0.2c0.1,0,0.2,0.1,0.3,0.2L125.3,57c0.1,0.1,0.2,0.2,0.2,0.3
					c0.9,2.3-0.2,4.8-2.5,5.7C122.5,63.2,121.9,63.3,121.4,63.3z M94.5,29.7c-0.3,0-0.5,0-0.8,0.1c-0.6,0.2-1.1,0.6-1.4,1.2
					c-0.4,0.9-0.3,2,0.5,2.7c0.2,0.2,0.4,0.3,0.7,0.5c0.1,0,0.2,0.1,0.3,0.2l25.2,25c0.1,0.1,0.2,0.2,0.2,0.3
					c0.2,0.6,0.7,1.1,1.3,1.3c0.6,0.3,1.2,0.3,1.8,0c1.2-0.5,1.8-1.7,1.4-2.9L95.4,29.8C95.1,29.7,94.8,29.7,94.5,29.7z"/>
			</g>
		</g>
		<g>
			<path d="M121.4,55.6c-0.3,0-0.5-0.1-0.7-0.3c-0.4-0.4-0.4-1,0-1.4l10.4-10.5c2.5-2.5,2.5-6.6,0-9.2l-11.9-11.9
				c-1.2-1.2-2.8-1.8-4.6-1.9c-1.7,0-3.3,0.7-4.6,1.9L99.6,32.6c-0.4,0.4-1,0.4-1.4,0c-0.4-0.4-0.4-1,0-1.4l10.4-10.3
				c1.6-1.6,3.7-2.5,6-2.5c0,0,0,0,0,0c2.3,0,4.4,0.9,6,2.5l11.9,11.9c3.3,3.3,3.3,8.7,0,12l-10.4,10.5
				C122,55.5,121.7,55.6,121.4,55.6z"/>
		</g>
		<g>
			<path d="M43,138.5c-0.3,0-0.5-0.1-0.7-0.3l-27.1-27.1c-0.2-0.2-0.3-0.4-0.3-0.7c0-0.3,0.1-0.5,0.3-0.7l76.2-75.9
				c0.4-0.4,1-0.4,1.4,0s0.4,1,0,1.4l-75.5,75.2L43,136.1l75.2-75.5c0.4-0.4,1-0.4,1.4,0c0.4,0.4,0.4,1,0,1.4l-75.9,76.2
				C43.6,138.4,43.3,138.5,43,138.5C43,138.5,43,138.5,43,138.5z"/>
		</g>
	</g>
	<g>
		<g>
			<path d="M28.1,99.1c-0.4,0-0.8-0.3-0.9-0.7c-0.6-1.9-1.2-3.8-1.6-5.7l-13.8-3.6c-0.4-0.1-0.7-0.5-0.7-1v-9.4c0-0.5,0.3-0.9,0.7-1
				l13.8-3.6c1.2-5.6,3.3-10.8,6.4-15.6l-7.2-12.3c-0.2-0.4-0.2-0.9,0.2-1.2l6.6-6.6c0.3-0.3,0.8-0.4,1.2-0.2l12.3,7.2
				c4.7-3.1,10-5.3,15.6-6.4l3.6-13.8c0.1-0.4,0.5-0.7,1-0.7h9.4c0.5,0,0.9,0.3,1,0.7L79.3,39c1.9,0.4,3.8,0.9,5.6,1.6
				c0.5,0.2,0.8,0.8,0.6,1.3s-0.8,0.8-1.3,0.6c-1.9-0.7-3.9-1.2-6-1.6c-0.4-0.1-0.7-0.4-0.8-0.7l-3.6-13.7h-7.9l-3.6,13.7
				c-0.1,0.4-0.4,0.7-0.8,0.7c-5.8,1.1-11.2,3.3-16,6.6c-0.3,0.2-0.7,0.2-1.1,0l-12.2-7.1l-5.6,5.6L34,58.1c0.2,0.3,0.2,0.7,0,1.1
				c-3.3,4.8-5.5,10.2-6.6,16c-0.1,0.4-0.4,0.7-0.7,0.8L13,79.5v7.9L26.7,91c0.4,0.1,0.7,0.4,0.7,0.8c0.4,2.1,1,4.1,1.6,6.1
				c0.2,0.5-0.1,1.1-0.6,1.3C28.3,99.1,28.2,99.1,28.1,99.1z"/>
		</g>
		<g>
			<path d="M74.7,142.5h-9.4c-0.5,0-0.9-0.3-1-0.7l-3.6-13.8c-2-0.4-3.9-0.9-5.7-1.6c-0.5-0.2-0.8-0.8-0.6-1.3
				c0.2-0.5,0.8-0.8,1.3-0.6c1.9,0.7,3.9,1.2,6.1,1.6c0.4,0.1,0.7,0.4,0.8,0.7l3.6,13.7h7.9l3.6-13.7c0.1-0.4,0.4-0.7,0.8-0.7
				c5.8-1.1,11.2-3.3,16-6.6c0.3-0.2,0.7-0.2,1.1,0l12.2,7.1l5.6-5.6l-7.1-12.2c-0.2-0.3-0.2-0.7,0-1.1c3.3-4.8,5.5-10.2,6.6-16
				c0.1-0.4,0.4-0.7,0.7-0.8l13.7-3.6v-7.9l-13.7-3.6c-0.4-0.1-0.7-0.4-0.7-0.8c-0.4-2-0.9-4.1-1.6-6c-0.2-0.5,0.1-1.1,0.6-1.3
				c0.5-0.2,1.1,0.1,1.3,0.6c0.6,1.8,1.2,3.7,1.6,5.6l13.8,3.6c0.4,0.1,0.7,0.5,0.7,1v9.4c0,0.5-0.3,0.9-0.7,1l-13.8,3.6
				c-1.2,5.6-3.3,10.8-6.4,15.6l7.2,12.3c0.2,0.4,0.2,0.9-0.2,1.2l-6.6,6.6c-0.3,0.3-0.8,0.4-1.2,0.2l-12.3-7.2
				c-4.7,3.1-10,5.3-15.6,6.4l-3.6,13.8C75.6,142.1,75.2,142.5,74.7,142.5z"/>
		</g>
		<g>
			<path d="M70.7,110.7l0-2c13.5-0.4,24.3-11.2,24.6-24.7c0-0.6,0.5-1,1-1c0.6,0,1,0.5,1,1C96.9,98.7,85.3,110.3,70.7,110.7z"/>
		</g>
		<g>
			<path d="M43.7,83.7C43.7,83.7,43.7,83.7,43.7,83.7c-0.6,0-1-0.4-1-1c0.4-14.6,12.1-26.2,26.6-26.6c0.5,0,1,0.4,1,1
				c0,0.6-0.4,1-1,1c-13.5,0.3-24.3,11.1-24.7,24.6C44.7,83.3,44.3,83.7,43.7,83.7z"/>
		</g>
	</g>
</g>
</svg>
