<svg id="Capa_1" data-name="Capa 1" xmlns="http://www.w3.org/2000/svg" width="36.1mm" height="11.5mm" viewBox="0 0 102.2 32.6"><defs><style>.cls-1{fill:#585857;}</style></defs><path class="cls-1" d="M1.4,25.4a1.3,1.3,0,0,1-1-.4A1.2,1.2,0,0,1,0,24V1.4A1.3,1.3,0,0,1,.4.4a1.3,1.3,0,0,1,1-.4,1.3,1.3,0,0,1,1,.4,1.8,1.8,0,0,1,.4,1V24a1.5,1.5,0,0,1-.4,1A1.3,1.3,0,0,1,1.4,25.4ZM28.1,0a1.3,1.3,0,0,1,1,.4,1.3,1.3,0,0,1,.4,1V31.2a1.1,1.1,0,0,1-.4.9,1.3,1.3,0,0,1-1,.4H28a1.2,1.2,0,0,1-.9-.3L14.8,21,2.4,32.3a1.7,1.7,0,0,1-1,.3,1.1,1.1,0,0,1-1-.4,1.3,1.3,0,0,1-.4-1,1.2,1.2,0,0,1,.5-1L13.8,18.1a1.4,1.4,0,0,1,.9-.3h.1a1.7,1.7,0,0,1,1,.3l10.9,10V1.4a1.8,1.8,0,0,1,.4-1A1.3,1.3,0,0,1,28.1,0Z"/><path class="cls-1" d="M45.4,29.3a1.7,1.7,0,0,1,1,0,1.1,1.1,0,0,1,.8.7,1.4,1.4,0,0,1,.1,1.1,1.6,1.6,0,0,1-.8.8,7.8,7.8,0,0,1-3.5.7,9,9,0,0,1-3.4-.6,9.2,9.2,0,0,1-2.8-1.9A7.5,7.5,0,0,1,35,27.3a7.2,7.2,0,0,1-.7-3.3V12.8a1.8,1.8,0,0,1,.4-1,1.4,1.4,0,0,1,2.4,1V24a5.9,5.9,0,0,0,.5,2.3,5.7,5.7,0,0,0,1.2,1.8,5,5,0,0,0,1.9,1.3,5.6,5.6,0,0,0,2.3.5A5.3,5.3,0,0,0,45.4,29.3Zm4.8-18a1.8,1.8,0,0,1,1,.4,1.5,1.5,0,0,1,.4,1.1V31.2a1.4,1.4,0,0,1-1.4,1.4,1.4,1.4,0,0,1-1-.4,1.8,1.8,0,0,1-.4-1V12.8a2.1,2.1,0,0,1,.4-1.1A2.1,2.1,0,0,1,50.2,11.3Z"/><path class="cls-1" d="M59.4,26.7a1.1,1.1,0,0,1-.1,1.1,2.7,2.7,0,0,1-.8.7h-.4a1.3,1.3,0,0,1-1.4-1c-.1-.2-.1-.5-.2-.8s0-.5-.1-.5v-.7a6.9,6.9,0,0,1,1.2-3.9,2.4,2.4,0,0,1,.9-.6,1.4,1.4,0,0,1,1.1.2,1.5,1.5,0,0,1,.4,2,3.9,3.9,0,0,0-.7,2.3A4.1,4.1,0,0,0,59.4,26.7ZM67.8,20a6.9,6.9,0,0,1,2.1,2.4,8.2,8.2,0,0,1,.7,3.1,6.4,6.4,0,0,1-.6,2.8,5.7,5.7,0,0,1-1.5,2.3,7.1,7.1,0,0,1-2.2,1.5,6.5,6.5,0,0,1-2.7.5,7.1,7.1,0,0,1-4.1-1.2,1.5,1.5,0,0,1-.6-.9,1.2,1.2,0,0,1,.2-1,2.4,2.4,0,0,1,.9-.6,1.4,1.4,0,0,1,1.1.2,4.1,4.1,0,0,0,2.5.8,4.5,4.5,0,0,0,3-1.3,4.1,4.1,0,0,0,1.2-3,5.8,5.8,0,0,0-.4-1.9,3.7,3.7,0,0,0-1.3-1.5,3.8,3.8,0,0,0-2.5-.9h-.1a5.8,5.8,0,0,1-1.9-.4A9.1,9.1,0,0,1,60,19.8a5.4,5.4,0,0,1-1-1.6,4.1,4.1,0,0,1-.4-1.9,4.3,4.3,0,0,1,.4-1.9,5.4,5.4,0,0,1,1-1.6,5.4,5.4,0,0,1,1.6-1,4.5,4.5,0,0,1,2-.4,4.1,4.1,0,0,1,1.9.4,4.4,4.4,0,0,1,1.6,1,5.7,5.7,0,0,1,1.1,1.6,6.9,6.9,0,0,1,.3,2,1.3,1.3,0,0,1-.4,1,1.5,1.5,0,0,1-.9.4,1.2,1.2,0,0,1-1-.5,1.2,1.2,0,0,1-.4-1,2.1,2.1,0,0,0-.7-1.5,2,2,0,0,0-1.5-.6,2.3,2.3,0,0,0-1.6.6,2,2,0,0,0-.6,1.5,2.5,2.5,0,0,0,.6,1.6,2.1,2.1,0,0,0,1.6.6A6.4,6.4,0,0,1,67.8,20Z"/><path class="cls-1" d="M77,5.6a2,2,0,0,1,1.4.6A2,2,0,0,1,79,7.7a2.1,2.1,0,0,1-2,2,2,2,0,0,1-1.5-.6,2,2,0,0,1-.6-1.4A2.1,2.1,0,0,1,77,5.6Zm0,5.7a1.1,1.1,0,0,1,.9.4,1.3,1.3,0,0,1,.4,1v11a1.4,1.4,0,0,1-.4,1,1.1,1.1,0,0,1-.9.4,1.2,1.2,0,0,1-1-.4,1.4,1.4,0,0,1-.4-1v-11a1.3,1.3,0,0,1,.4-1A1.2,1.2,0,0,1,77,11.3Zm0,16.4a1.2,1.2,0,0,1,.9.5,1.1,1.1,0,0,1,.4.9v2.1a1.2,1.2,0,0,1-.4,1,1.1,1.1,0,0,1-.9.4,1.4,1.4,0,0,1-1.4-1.4V29.1a1.1,1.1,0,0,1,.4-.9A1.2,1.2,0,0,1,77,27.7Z"/><path class="cls-1" d="M93.9,29.9a1.3,1.3,0,0,1,1,.4,1.2,1.2,0,0,1,.4,1,1.1,1.1,0,0,1-.4.9,1.3,1.3,0,0,1-1,.4,9.7,9.7,0,0,1-4.1-.8,11.1,11.1,0,0,1-3.4-2.2,11.1,11.1,0,0,1-2.2-3.4,9.9,9.9,0,0,1-.9-4.2,10.7,10.7,0,0,1,1.1-4.6,1.1,1.1,0,0,1,.8-.7,1.1,1.1,0,0,1,1.1,0,1.9,1.9,0,0,1,.7.8,1.4,1.4,0,0,1-.1,1.1,8.8,8.8,0,0,0-.8,3.4,8.1,8.1,0,0,0,.6,3.1,10.1,10.1,0,0,0,1.7,2.5,7.2,7.2,0,0,0,2.5,1.6A7.3,7.3,0,0,0,93.9,29.9Zm8-15.1a2,2,0,0,1,.3,1.1,1,1,0,0,1-.4.9,1.3,1.3,0,0,1-1,.4,1.8,1.8,0,0,1-1-.4,7.3,7.3,0,0,0-2.6-2,8.7,8.7,0,0,0-3.2-.6,7.3,7.3,0,0,0-3,.6l-1.4.7a1.1,1.1,0,0,1-.8.2,1.6,1.6,0,0,1-1.2-.6,1.4,1.4,0,0,1-.2-1.1,1.6,1.6,0,0,1,.6-.8l.9-.6,1-.4a9.7,9.7,0,0,1,4.1-.8,10.7,10.7,0,0,1,4.3.9A12.3,12.3,0,0,1,101.9,14.8Z"/></svg>