<svg id="Capa_1" data-name="Capa 1" xmlns="http://www.w3.org/2000/svg" width="10.4mm" height="11.5mm" viewBox="0 0 29.5 32.6"><defs><style>.cls-1{fill:#585857;}</style></defs><path class="cls-1" d="M1.4,25.4a1.3,1.3,0,0,1-1-.4A1.2,1.2,0,0,1,0,24V1.4A1.3,1.3,0,0,1,.4.4a1.3,1.3,0,0,1,1-.4,1.3,1.3,0,0,1,1,.4,1.8,1.8,0,0,1,.4,1V24a1.5,1.5,0,0,1-.4,1A1.3,1.3,0,0,1,1.4,25.4ZM28.1,0a1.3,1.3,0,0,1,1,.4,1.3,1.3,0,0,1,.4,1V31.2a1.1,1.1,0,0,1-.4.9,1.3,1.3,0,0,1-1,.4H28a1.2,1.2,0,0,1-.9-.3L14.8,21,2.4,32.3a1.7,1.7,0,0,1-1,.3,1.1,1.1,0,0,1-1-.4,1.3,1.3,0,0,1-.4-1,1.2,1.2,0,0,1,.5-1L13.8,18.1a1.4,1.4,0,0,1,.9-.3h.1a1.7,1.7,0,0,1,1,.3l10.9,10V1.4a1.8,1.8,0,0,1,.4-1A1.3,1.3,0,0,1,28.1,0Z"/></svg>