<?xml version="1.0" encoding="utf-8"?>
<!-- Generator: Adobe Illustrator 22.1.0, SVG Export Plug-In . SVG Version: 6.00 Build 0)  -->
<svg version="1.1" id="图层_1" xmlns="http://www.w3.org/2000/svg" xmlns:xlink="http://www.w3.org/1999/xlink" x="0px" y="0px"
	 viewBox="0 0 24 30" style="enable-background:new 0 0 24 30;" xml:space="preserve">
<title>Instagram</title>
<path d="M20.4,0H3.6C1.6,0,0,1.6,0,3.6v16.9c0,2,1.6,3.6,3.6,3.6h16.9c2,0,3.6-1.6,3.6-3.6V3.6C24,1.6,22.4,0,20.4,0z M22,20.4
	c0,0.9-0.7,1.6-1.6,1.6H3.6C2.7,22,2,21.3,2,20.4V3.6C2,2.7,2.7,2,3.6,2l0,0h16.9C21.3,2,22,2.7,22,3.6V20.4z"/>
<path d="M12,6c-3.3,0-6,2.7-6,6s2.7,6,6,6s6-2.7,6-6S15.3,6,12,6z M12,16c-2.2,0-4-1.8-4-4s1.8-4,4-4s4,1.8,4,4S14.2,16,12,16z"/>
<circle cx="18.5" cy="5.5" r="1.5"/>
</svg>
