<svg xmlns="http://www.w3.org/2000/svg" xmlns:xlink="http://www.w3.org/1999/xlink" xml:space="preserve" version="1.1" style="shape-rendering:geometricPrecision;text-rendering:geometricPrecision;image-rendering:optimizeQuality;" viewBox="0 0 60000 75000" x="0px" y="0px" fill-rule="evenodd" clip-rule="evenodd"><defs><style type="text/css">
   
    .fil0 {fill:black;fill-rule:nonzero}
   
  </style></defs><g><path class="fil0" d="M3224 21047l8625 0 9525 0 8625 0 8625 0 9525 0 8625 0c221,0 400,179 400,400l0 31446c0,826 -263,1534 -743,2038 -472,495 -1142,783 -1966,783l-6317 0 -9525 0 -8625 0 -8625 0 -9525 0 -6317 0c-824,0 -1494,-288 -1966,-783 -480,-504 -743,-1212 -743,-2038l0 -31446c0,-221 179,-400 400,-400zm20066 -2285c0,221 -179,400 -400,400 -221,0 -400,-179 -400,-400l0 -1002 -1002 0c-221,0 -400,-179 -400,-400 0,-221 179,-400 400,-400l1002 0 0 -1002c0,-221 179,-400 400,-400 221,0 400,179 400,400l0 1002 1002 0c221,0 400,179 400,400 0,221 -179,400 -400,400l-1002 0 0 1002zm-4405 0c0,221 -179,400 -400,400 -221,0 -400,-179 -400,-400l0 -1002 -1002 0c-221,0 -400,-179 -400,-400 0,-221 179,-400 400,-400l1002 0 0 -1002c0,-221 179,-400 400,-400 221,0 400,179 400,400l0 1002 1002 0c221,0 400,179 400,400 0,221 -179,400 -400,400l-1002 0 0 1002zm-4405 0c0,221 -179,400 -400,400 -221,0 -400,-179 -400,-400l0 -1002 -1002 0c-221,0 -400,-179 -400,-400 0,-221 179,-400 400,-400l1002 0 0 -1002c0,-221 179,-400 400,-400 221,0 400,179 400,400l0 1002 1002 0c221,0 400,179 400,400 0,221 -179,400 -400,400l-1002 0 0 1002zm-4405 0c0,221 -179,400 -400,400 -221,0 -400,-179 -400,-400l0 -1002 -1002 0c-221,0 -400,-179 -400,-400 0,-221 179,-400 400,-400l1002 0 0 -1002c0,-221 179,-400 400,-400 221,0 400,179 400,400l0 1002 1002 0c221,0 400,179 400,400 0,221 -179,400 -400,400l-1002 0 0 1002zm-4405 0c0,221 -179,400 -400,400 -221,0 -400,-179 -400,-400l0 -1002 -1002 0c-221,0 -400,-179 -400,-400 0,-221 179,-400 400,-400l1002 0 0 -1002c0,-221 179,-400 400,-400 221,0 400,179 400,400l0 1002 1002 0c221,0 400,179 400,400 0,221 -179,400 -400,400l-1002 0 0 1002zm14978 -9863l3143 0c221,0 400,179 400,400l0 4895c0,221 -179,400 -400,400l-3143 0 -773 0 -2371 0 -773 0 -2371 0 -773 0 -2371 0 -773 0 -2371 0 -773 0 -3143 0c-221,0 -400,-179 -400,-400l0 -4895c0,-221 179,-400 400,-400l3143 0 773 0 2371 0 773 0 2371 0 773 0 2371 0 773 0 2371 0 773 0zm-1173 4895l0 -4095 -1571 0 0 4095 1571 0zm3916 -4095l-2343 0 0 4095 2343 0 0 -4095zm-7059 4095l0 -4095 -1571 0 0 4095 1571 0zm-3143 0l0 -4095 -1571 0 0 4095 1571 0zm-3143 0l0 -4095 -1571 0 0 4095 1571 0zm-3143 0l0 -4095 -2343 0 0 4095 2343 0zm16389 -6303c0,221 -179,400 -400,400 -221,0 -400,-179 -400,-400l0 -1002 -1002 0c-221,0 -400,-179 -400,-400 0,-221 179,-400 400,-400l1002 0 0 -1002c0,-221 179,-400 400,-400 221,0 400,179 400,400l0 1002 1002 0c221,0 400,179 400,400 0,221 -179,400 -400,400l-1002 0 0 1002zm-4405 0c0,221 -179,400 -400,400 -221,0 -400,-179 -400,-400l0 -1002 -1002 0c-221,0 -400,-179 -400,-400 0,-221 179,-400 400,-400l1002 0 0 -1002c0,-221 179,-400 400,-400 221,0 400,179 400,400l0 1002 1002 0c221,0 400,179 400,400 0,221 -179,400 -400,400l-1002 0 0 1002zm-4405 0c0,221 -179,400 -400,400 -221,0 -400,-179 -400,-400l0 -1002 -1002 0c-221,0 -400,-179 -400,-400 0,-221 179,-400 400,-400l1002 0 0 -1002c0,-221 179,-400 400,-400 221,0 400,179 400,400l0 1002 1002 0c221,0 400,179 400,400 0,221 -179,400 -400,400l-1002 0 0 1002zm-4405 0c0,221 -179,400 -400,400 -221,0 -400,-179 -400,-400l0 -1002 -1002 0c-221,0 -400,-179 -400,-400 0,-221 179,-400 400,-400l1002 0 0 -1002c0,-221 179,-400 400,-400 221,0 400,179 400,400l0 1002 1002 0c221,0 400,179 400,400 0,221 -179,400 -400,400l-1002 0 0 1002zm-4405 0c0,221 -179,400 -400,400 -221,0 -400,-179 -400,-400l0 -1002 -1002 0c-221,0 -400,-179 -400,-400 0,-221 179,-400 400,-400l1002 0 0 -1002c0,-221 179,-400 400,-400 221,0 400,179 400,400l0 1002 1002 0c221,0 400,179 400,400 0,221 -179,400 -400,400l-1002 0 0 1002zm23069 -937c-221,0 -400,-179 -400,-400 0,-221 179,-400 400,-400l27093 0c221,0 400,179 400,400 0,221 -179,400 -400,400l-27093 0zm24606 4003l2223 0c221,0 400,179 400,400l0 7779c0,221 -179,400 -400,400l-2223 0c-221,0 -400,-179 -400,-400l0 -7779c0,-221 179,-400 400,-400zm1823 800l-1423 0 0 6979 1423 0 0 -6979zm-6707 -800l2223 0c221,0 400,179 400,400l0 7779c0,221 -179,400 -400,400l-2223 0c-221,0 -400,-179 -400,-400l0 -7779c0,-221 179,-400 400,-400zm1823 800l-1423 0 0 6979 1423 0 0 -6979zm-6707 -800l2223 0c221,0 400,179 400,400l0 7779c0,221 -179,400 -400,400l-2223 0c-221,0 -400,-179 -400,-400l0 -7779c0,-221 179,-400 400,-400zm1823 800l-1423 0 0 6979 1423 0 0 -6979zm-6707 -800l2223 0c221,0 400,179 400,400l0 7779c0,221 -179,400 -400,400l-2223 0c-221,0 -400,-179 -400,-400l0 -7779c0,-221 179,-400 400,-400zm1823 800l-1423 0 0 6979 1423 0 0 -6979zm-6707 -800l2223 0c221,0 400,179 400,400l0 7779c0,221 -179,400 -400,400l-2223 0c-221,0 -400,-179 -400,-400l0 -7779c0,-221 179,-400 400,-400zm1823 800l-1423 0 0 6979 1423 0 0 -6979zm-6707 -800l2223 0c221,0 400,179 400,400l0 7779c0,221 -179,400 -400,400l-2223 0c-221,0 -400,-179 -400,-400l0 -7779c0,-221 179,-400 400,-400zm1823 800l-1423 0 0 6979 1423 0 0 -6979zm20636 10491l39 21786 2 0c0,856 -227,1359 -536,1655 -336,322 -736,386 -1068,386l-1267 0 0 9240 5917 0c594,0 1066,-196 1387,-533 337,-353 521,-870 521,-1488l0 -31046 -4995 0zm-3630 23827l-1267 0c-332,0 -732,-64 -1068,-386 -309,-296 -536,-798 -536,-1655l2 0 39 -21786 -3105 0 39 21786 2 0c0,856 -227,1359 -536,1655 -336,322 -736,386 -1068,386l-1227 0 0 9240 8725 0 0 -9240zm-9525 0l-1307 0c-332,0 -732,-64 -1068,-386 -309,-296 -536,-798 -536,-1655l2 0 39 -21786 -4956 0 0 33067 7825 0 0 -9240zm-23146 -23827l39 21786 2 0c0,856 -227,1359 -536,1655 -336,322 -736,386 -1068,386l-1267 0 0 9240 8725 0 0 -9240 -1227 0c-332,0 -732,-64 -1068,-386 -309,-296 -536,-798 -536,-1655l2 0 39 -21786 -3105 0zm-3630 23827l-1267 0c-332,0 -732,-64 -1068,-386 -309,-296 -536,-798 -536,-1655l2 0 39 -21786 -4995 0 0 31046c0,618 185,1135 521,1488 321,337 793,533 1387,533l5917 0 0 -9240zm13195 -23827l39 21786 2 0c0,856 -227,1359 -536,1655 -336,322 -736,386 -1068,386l-1307 0 0 9240 7825 0 0 -33067 -4956 0z"/></g><text x="0" y="60015" fill="#000000" font-size="5px" font-weight="bold" font-family="'Helvetica Neue', Helvetica, Arial-Unicode, Arial, Sans-serif">Created by Olena Panasovska</text><text x="0" y="60020" fill="#000000" font-size="5px" font-weight="bold" font-family="'Helvetica Neue', Helvetica, Arial-Unicode, Arial, Sans-serif">from the Noun Project</text></svg>